<svg width="113" height="39" viewBox="0 0 113 39" fill="none" xmlns="http://www.w3.org/2000/svg">
    <path d="M.918 3.86h5.377c.813 0 1.652.027 2.519.08.88.04 1.732.18 2.558.42.84.24 1.626.613 2.359 1.12.746.492 1.399 1.192 1.959 2.098.56.893.999 2.025 1.319 3.398.333 1.36.5 3.025.5 4.997v9.914c0 1.972-.167 3.645-.5 5.017-.32 1.373-.76 2.505-1.32 3.398-.56.893-1.212 1.593-1.958 2.099-.733.493-1.52.86-2.359 1.1-.826.24-1.679.386-2.558.439-.867.04-1.706.06-2.519.06H.918V3.86zm6.496 30.522c.933 0 1.7-.12 2.3-.36.612-.24 1.092-.66 1.438-1.259.36-.613.607-1.44.74-2.478.133-1.053.2-2.38.2-3.978V15.713c0-1.599-.067-2.918-.2-3.958-.133-1.052-.38-1.878-.74-2.478-.346-.613-.826-1.04-1.439-1.28-.6-.24-1.366-.36-2.299-.36H6.095v26.745h1.32zM28.618 6.54c-.933 0-1.672-.28-2.219-.84-.533-.56-.8-1.38-.8-2.459 0-.6.067-1.099.2-1.499.147-.413.347-.74.6-.98.267-.252.587-.432.96-.539.373-.12.8-.18 1.279-.18 1 0 1.759.254 2.279.76s.78 1.32.78 2.438c0 1.04-.267 1.853-.8 2.439-.52.573-1.28.86-2.279.86zM26 10.475h5.057V38H26V10.476zM47.082 38.3c-1.186 0-2.239-.22-3.158-.66-.906-.44-1.672-1.126-2.299-2.059-.626-.932-1.099-2.125-1.419-3.578-.32-1.465-.48-3.224-.48-5.276V21.53c0-1.746.127-3.238.38-4.478.267-1.252.607-2.298 1.02-3.138.426-.853.912-1.526 1.459-2.019.56-.493 1.133-.866 1.719-1.119a5.822 5.822 0 0 1 1.739-.5c.586-.08 1.126-.12 1.619-.12.906 0 1.779.14 2.618.42a5.24 5.24 0 0 1 2.219 1.4c.64.652 1.146 1.532 1.52 2.638.386 1.106.579 2.485.579 4.137 0 .56-.02 1.126-.06 1.7-.027.572-.067 1.139-.12 1.698-.053.547-.127 1.08-.22 1.6-.08.52-.167.999-.26 1.439h-9.135v2.798c0 1.2.047 2.212.14 3.038.094.813.247 1.473.46 1.979.227.493.526.853.9 1.08.386.212.866.32 1.439.32.306 0 .606-.06.9-.18a1.92 1.92 0 0 0 .759-.64c.226-.294.406-.68.54-1.16.133-.493.2-1.1.2-1.819v-.86h4.217v1.06c0 2.612-.626 4.518-1.879 5.717-1.24 1.186-3.038 1.779-5.397 1.779zm2.799-16.51a14.866 14.866 0 0 0 .06-1.36c.013-.266.02-.526.02-.78v-.679c0-1.812-.214-3.118-.64-3.918-.427-.799-1.06-1.199-1.9-1.199-.439 0-.825.107-1.158.32-.334.2-.607.546-.82 1.04-.213.48-.373 1.119-.48 1.918-.106.8-.16 1.792-.16 2.978v1.68h5.078zM62.97 10.476h3.698l.44 2.798c.559-1.039 1.199-1.818 1.918-2.338.733-.52 1.48-.78 2.239-.78 1.452 0 2.525.447 3.218 1.34.693.892 1.04 2.232 1.04 4.017 0 .227-.02.5-.06.82a9.61 9.61 0 0 1-.14.98c-.054.332-.127.672-.22 1.019-.08.333-.167.64-.26.919h-3.518v-2.559c0-.56-.04-1.019-.12-1.379-.067-.36-.16-.646-.28-.86-.12-.226-.26-.379-.42-.459a1.014 1.014 0 0 0-.52-.14 1.8 1.8 0 0 0-1.119.4c-.333.253-.613.613-.84 1.08V38H62.97V10.476zM84.333.502h4.977l-.42 13.912h-4.057l-.5-13.912zm14.728 31.741c0-.6.053-1.179.16-1.739.12-.56.233-1.006.34-1.339h3.557c0 1 .047 1.84.14 2.519.107.666.273 1.199.5 1.599.226.4.526.686.899.86.387.172.853.26 1.399.26.76 0 1.313-.214 1.659-.64.347-.427.52-.92.52-1.48 0-.293-.04-.573-.12-.84a4.088 4.088 0 0 0-.34-.799 5.896 5.896 0 0 0-.539-.84c-.213-.279-.453-.585-.72-.919l-3.698-4.357c-.479-.6-.946-1.206-1.399-1.819a17.99 17.99 0 0 1-1.179-1.919 12.703 12.703 0 0 1-.82-2.079c-.2-.72-.3-1.479-.3-2.278 0-1.066.18-1.992.54-2.779a5.763 5.763 0 0 1 1.479-1.959 6.261 6.261 0 0 1 2.159-1.159 8.624 8.624 0 0 1 2.579-.38c.999 0 1.898.12 2.698.36s1.486.6 2.059 1.08a4.71 4.71 0 0 1 1.319 1.799c.306.706.46 1.532.46 2.478 0 .64-.06 1.26-.18 1.859-.107.6-.213 1.113-.32 1.539h-3.498a28.804 28.804 0 0 0-.12-2.379c-.066-.68-.193-1.239-.38-1.679-.173-.453-.419-.792-.739-1.019-.307-.227-.713-.34-1.219-.34-.44 0-.807.074-1.1.22a1.965 1.965 0 0 0-.719.54c-.174.226-.3.48-.38.76-.067.28-.1.566-.1.859 0 .64.153 1.232.46 1.779.306.546.713 1.14 1.219 1.779l4.038 4.737c.293.36.632.8 1.019 1.32.386.506.753 1.072 1.099 1.698.347.613.64 1.286.88 2.019.24.733.36 1.5.36 2.299 0 .972-.154 1.858-.46 2.658a5.423 5.423 0 0 1-1.359 2.019c-.6.56-1.34.993-2.219 1.3-.866.306-1.859.459-2.978.459-.92 0-1.786-.1-2.599-.3-.813-.213-1.519-.553-2.119-1.02-.599-.48-1.072-1.105-1.419-1.878-.346-.773-.52-1.726-.52-2.859z" fill="#F0F0F2"/>
</svg>
